<svg width="127" height="65" viewBox="0 0 127 65" fill="none" xmlns="http://www.w3.org/2000/svg">
<path d="M27.216 41.829C25.667 41.829 24.3301 42.3595 23.4389 43.3355V41.9987H20.2773V53.4146H23.5875V47.7703C23.5875 45.6696 24.7333 44.6936 26.3247 44.6936C27.7889 44.6936 28.6376 45.5423 28.6376 47.3884V53.4146H31.9478V46.8791C31.9478 43.3992 29.9108 41.829 27.216 41.829Z" fill="#22404D"/>
<path d="M39.5529 41.829C37.728 41.829 35.882 42.317 34.6301 43.2082L35.8183 45.5211C36.6459 44.8633 37.8978 44.4602 39.1073 44.4602C40.8897 44.4602 41.7385 45.2877 41.7385 46.7094H39.1073C35.6274 46.7094 34.2057 48.1098 34.2057 50.1257C34.2057 52.099 35.7971 53.5844 38.4707 53.5844C40.147 53.5844 41.3353 53.0327 41.9507 51.993V53.4146H45.0486V46.9004C45.0486 43.4416 43.0328 41.829 39.5529 41.829ZM39.2983 51.3564C38.1312 51.3564 37.431 50.8047 37.431 49.9771C37.431 49.2132 37.919 48.6403 39.468 48.6403H41.7385V49.8074C41.3565 50.8471 40.4017 51.3564 39.2983 51.3564Z" fill="#22404D"/>
<path d="M46.5168 55.3244H57.1263V53.4146H46.5168V55.3244Z" fill="#22404D"/>
<path d="M64.7115 50.5288C64.3508 50.8047 63.8627 50.9532 63.3747 50.9532C62.4835 50.9532 61.953 50.4227 61.953 49.4467V44.7997H64.7964V42.2534H61.953V39.4737H58.6428V42.2534H56.8816V44.7997H58.6428V49.4891C58.6428 52.2051 60.213 53.5844 62.9079 53.5844C63.9264 53.5844 64.9237 53.351 65.6027 52.8629L64.7115 50.5288Z" fill="#22404D"/>
<path d="M78.2911 47.7491C78.2911 44.0782 75.7023 41.829 72.3497 41.829C68.8698 41.829 66.2598 44.2904 66.2598 47.7067C66.2598 51.1017 68.8274 53.5844 72.7741 53.5844C74.8324 53.5844 76.4238 52.9478 77.4848 51.7383L75.7236 49.8286C74.9385 50.5713 74.0685 50.932 72.859 50.932C71.119 50.932 69.9095 50.062 69.5912 48.6403H78.2274C78.2486 48.3645 78.2911 48.0038 78.2911 47.7491ZM72.3709 44.3328C73.8563 44.3328 74.9385 45.2665 75.1719 46.7094H69.5488C69.7822 45.2453 70.8644 44.3328 72.3709 44.3328Z" fill="#22404D"/>
<path d="M86.0119 53.5844C88.4096 53.5844 90.2981 52.5234 91.1257 50.6986L88.5582 49.2981C87.9428 50.4015 87.0304 50.8683 85.9906 50.8683C84.3143 50.8683 82.9987 49.7013 82.9987 47.7067C82.9987 45.7121 84.3143 44.545 85.9906 44.545C87.0304 44.545 87.9428 45.0331 88.5582 46.1152L91.1257 44.736C90.2981 42.8687 88.4096 41.829 86.0119 41.829C82.2985 41.829 79.6461 44.2692 79.6461 47.7067C79.6461 51.1442 82.2985 53.5844 86.0119 53.5844Z" fill="#22404D"/>
<path d="M99.8874 41.829C98.4232 41.829 97.1501 42.2958 96.2589 43.187V37.67H92.9487V53.4146H96.2589V47.7703C96.2589 45.6696 97.4047 44.6936 98.9962 44.6936C100.46 44.6936 101.309 45.5423 101.309 47.3884V53.4146H104.619V46.8791C104.619 43.3992 102.582 41.829 99.8874 41.829Z" fill="#22404D"/>
<path d="M31.7686 13.2689H43.0312V19.7373H31.7686V13.2689ZM31.7686 23.2378H45.0859V30.0106H22.9411V3.376H44.5913V10.1488H31.7686V23.2378Z" fill="#00A0AF"/>
<path d="M48.2764 30.0106V1.77793H56.8756V30.0106H48.2764Z" fill="#00A0AF"/>
<path d="M73.2815 30.0106V26.3198L73.157 25.1556L72.6727 24.3658V18.3294C72.7339 16.7496 72.3556 16.5411 71.7214 16.0084C71.1126 15.4757 70.1107 15.2094 68.7155 15.2094C67.777 15.2094 66.8257 15.3616 65.8618 15.666C64.8979 15.945 64.0735 16.3382 63.3886 16.8455L60.649 11.1761C61.8666 10.4152 63.3252 9.83173 65.0247 9.42587C66.7243 9.02001 68.3858 8.81708 70.0092 8.81708C73.5859 8.81708 76.3508 9.61612 78.304 11.2142C80.2826 12.8123 81.2718 15.3489 81.2718 18.8241V30.0106H73.2815ZM67.3838 30.3911C65.6842 30.3911 64.2637 30.0994 63.1222 29.516C61.9808 28.9326 61.1183 28.1589 60.5349 27.195C59.9515 26.2057 59.6597 25.1149 59.6597 23.9227C59.6597 22.5783 60.0022 21.4368 60.6871 20.4983C61.372 19.5597 62.412 18.8495 63.8071 18.3675C65.2277 17.8855 67.016 17.6446 69.1721 17.6446H72.6727V21.7919H70.5419C69.6287 21.7919 68.9565 21.9441 68.5253 22.2485C68.1194 22.5276 67.9165 22.9588 67.9165 23.5422C67.9165 24.0242 68.094 24.43 68.4492 24.7598C68.8297 25.0642 69.337 25.2164 69.9712 25.2164C70.5546 25.2164 71.0873 25.0642 71.5692 24.7598C72.0766 24.43 72.4444 23.9227 72.6727 23.2378V24.3658L73.157 25.1556L73.2815 26.3198V27.1443C73.0583 28.047 72.7488 28.4887 71.6834 29.2496C70.618 30.0106 69.1848 30.3911 67.3838 30.3911Z" fill="#00A0AF"/>
<path d="M93.1308 30.3911C91.3551 30.3911 89.6049 30.2009 87.88 29.8204C86.1551 29.4399 84.7599 28.9452 83.6945 28.3365L86.0536 22.6671C87.0429 23.2505 88.1843 23.7071 89.478 24.0369C90.7971 24.3666 92.0781 24.5315 93.321 24.5315C94.3611 24.5315 95.0586 24.4427 95.4138 24.2652C95.7943 24.0876 95.9845 23.8466 95.9845 23.5422C95.9845 23.2378 95.7689 23.0222 95.3377 22.8954C94.9064 22.7432 94.3357 22.629 93.6254 22.5529C92.9152 22.4768 92.1288 22.3881 91.2664 22.2866C90.4293 22.1598 89.5795 21.9822 88.717 21.7539C87.8546 21.5256 87.0682 21.1832 86.358 20.7266C85.6477 20.27 85.077 19.6612 84.6458 18.9002C84.2145 18.1138 83.9989 17.1245 83.9989 15.9323C83.9989 14.6133 84.3921 13.4211 85.1785 12.3557C85.9902 11.2903 87.1824 10.4405 88.7551 9.80637C90.3532 9.14684 92.3191 8.81708 94.6528 8.81708C96.1747 8.81708 97.6967 8.95659 99.2187 9.23562C100.741 9.51465 102.047 9.94588 103.138 10.5293L100.779 16.1987C99.7133 15.6152 98.6606 15.2221 97.6206 15.0191C96.606 14.7908 95.6547 14.6767 94.7669 14.6767C93.6762 14.6767 92.9279 14.7782 92.522 14.9811C92.1415 15.184 91.9513 15.4123 91.9513 15.666C91.9513 15.9704 92.1669 16.1987 92.5981 16.3509C93.0293 16.5031 93.6001 16.6172 94.3103 16.6933C95.0206 16.7694 95.7943 16.8709 96.6313 16.9977C97.4938 17.0992 98.3436 17.2767 99.1806 17.5304C100.043 17.7587 100.829 18.1011 101.54 18.5577C102.25 19.0143 102.821 19.6358 103.252 20.4222C103.683 21.1832 103.899 22.1598 103.899 23.352C103.899 24.5949 103.506 25.7618 102.719 26.8525C101.933 27.9179 100.741 28.7804 99.1426 29.4399C97.5445 30.0741 95.5406 30.3911 93.1308 30.3911Z" fill="#00A0AF"/>
<path d="M9.70081 64.3185H0L0 0.00290108H9.70081V4.37006H5.58423V59.9514H9.70081V64.3185Z" fill="#22404D"/>
<path d="M127 0V64.3156H117.335V59.9485H121.416V4.36715H117.335V0H127Z" fill="#22404D"/>
</svg>
