<svg xmlns="http://www.w3.org/2000/svg" width="310" height="48" viewBox="0 0 310 48" fill="none"><path d="M2.81063 39.4766V28.4257C2.81063 26.4455 1.91634 24.7208 0 24.7208V22.0379C1.85246 22.0379 2.81063 20.3132 2.81063 18.333V7.28209C2.81063 2.81063 6.13229 0 9.51782 0H12.7756V2.93839H9.51782C7.60148 2.93839 5.94065 4.72697 5.94065 7.21821V18.5885C5.94065 20.8242 5.238 22.5489 3.44941 23.3155C5.238 24.082 5.94065 25.8067 5.94065 28.0424V39.4127C5.94065 41.904 7.5376 43.6926 9.51782 43.6926H12.7756V46.6309H9.51782C6.13229 46.6309 2.81063 43.8203 2.81063 39.4127V39.4766Z" fill="#7E459B"></path><path d="M20.9512 10.4759H24.9755V14.6918C27.0835 11.9451 30.0857 9.96484 33.6629 9.96484V14.1169C33.1519 13.9892 32.7047 13.9253 32.0659 13.9253C29.5747 13.9253 26.1892 15.9694 25.0394 18.0773V36.4742H21.0151V10.4759H20.9512Z" fill="#7E459B"></path><path d="M50.0164 9.8374C57.8734 9.8374 62.4726 15.9697 62.4726 23.7628V24.7849H41.4567C41.7761 29.7035 45.2255 33.7917 50.7829 33.7917C56.3403 33.7917 56.7236 32.578 58.7677 30.5339L60.684 33.1529C58.1289 35.708 54.6156 37.1133 50.3358 37.1133C42.6704 37.1133 37.113 31.5559 37.113 23.4434C37.113 15.3309 42.4788 9.8374 49.8886 9.8374H50.0164ZM41.4567 21.8465H58.5122C58.5122 17.9499 55.8932 13.1591 49.9525 13.1591C44.0119 13.1591 41.6484 17.8222 41.4567 21.8465Z" fill="#7E459B"></path><path d="M68.9883 46.3756V10.4762H73.0126V14.3727C74.8651 11.7537 78.1228 9.8374 81.7639 9.8374C88.5988 9.8374 93.3258 15.0115 93.3258 23.4434C93.3258 31.8753 88.5988 37.1133 81.7639 37.1133C74.9289 37.1133 75.1206 35.4525 73.0126 32.5141V46.3117H68.9883V46.3756ZM80.7418 13.4784C77.5479 13.4784 74.4179 15.3309 73.0126 17.6305V29.3841C74.4179 31.6198 77.6118 33.6 80.7418 33.6C85.9798 33.6 89.046 29.3202 89.046 23.5712C89.046 17.8222 85.916 13.5423 80.7418 13.5423V13.4784Z" fill="#14191D"></path><path d="M99.8418 10.4759H103.866V14.6918C105.974 11.9451 108.976 9.96484 112.554 9.96484V14.1169C112.043 13.9892 111.595 13.9253 110.957 13.9253C108.465 13.9253 105.08 15.9694 103.93 18.0773V36.4742H99.9057V10.4759H99.8418Z" fill="#14191D"></path><path d="M116.129 23.4434C116.129 15.9058 121.048 9.8374 128.968 9.8374C136.889 9.8374 141.808 15.9058 141.808 23.4434C141.808 30.981 136.889 37.1133 128.968 37.1133C121.048 37.1133 116.129 30.981 116.129 23.4434ZM137.592 23.4434C137.592 18.1415 134.526 13.4146 128.968 13.4146C123.411 13.4146 120.281 18.1415 120.281 23.4434C120.281 28.7453 123.411 33.4723 128.968 33.4723C134.526 33.4723 137.592 28.7453 137.592 23.4434Z" fill="#14191D"></path><path d="M150.369 40.1152C152.541 42.6703 155.096 43.6923 158.801 43.6923C162.506 43.6923 167.105 41.5844 167.105 35.8992V32.1943C165.252 34.8133 162.058 36.7935 158.417 36.7935C151.646 36.7935 146.855 31.7472 146.855 23.3791C146.855 15.0111 151.582 9.90088 158.417 9.90088C165.252 9.90088 165.061 11.6256 167.105 14.5001V10.6035H171.129V35.8354C171.129 44.4589 165.125 47.1418 158.737 47.1418C152.349 47.1418 151.327 46.3113 148.261 43.2452L150.305 40.2429L150.369 40.1152ZM167.169 17.6301C165.763 15.3944 162.633 13.4142 159.439 13.4142C154.201 13.4142 151.135 17.5662 151.135 23.3153C151.135 29.0643 154.265 33.2164 159.439 33.2164C164.614 33.2164 165.763 31.2361 167.169 28.9365V17.5662V17.6301Z" fill="#14191D"></path><path d="M179.242 10.4759H183.266V14.6918C185.374 11.9451 188.377 9.96484 191.954 9.96484V14.1169C191.443 13.9892 190.996 13.9253 190.357 13.9253C187.866 13.9253 184.48 15.9694 183.33 18.0773V36.4742H179.306V10.4759H179.242Z" fill="#14191D"></path><path d="M213.225 33.5361C211.054 35.8996 208.115 37.1133 204.602 37.1133C201.089 37.1133 195.531 34.1749 195.531 28.4898C195.531 22.8046 200.194 19.9301 204.602 19.9301C209.01 19.9301 211.117 21.0799 213.225 23.5073V18.8442C213.225 15.3309 210.415 13.3507 206.646 13.3507C202.877 13.3507 201.025 14.5005 198.661 16.9279L196.809 14.1172C199.619 11.2427 202.941 9.8374 207.157 9.8374C211.373 9.8374 217.186 12.3286 217.186 18.5887V36.4107H213.162V33.4723L213.225 33.5361ZM213.225 26.1263C211.692 23.9544 208.946 22.8685 206.071 22.8685C203.197 22.8685 199.683 25.232 199.683 28.5537C199.683 31.8753 202.302 34.1749 206.071 34.1749C209.84 34.1749 211.692 33.089 213.225 30.9171V25.9985V26.1263Z" fill="#14191D"></path><path d="M256.661 18.8437C256.661 15.5859 255.192 13.478 251.87 13.478C248.548 13.478 246.313 15.3943 244.971 17.4384V36.474H240.947V18.8437C240.947 15.5859 239.542 13.478 236.156 13.478C232.771 13.478 230.726 15.3943 229.321 17.5023V36.474H225.297V10.4757H229.321V14.2445C230.407 12.5837 233.92 9.83691 237.689 9.83691C241.458 9.83691 243.949 12.0088 244.652 14.6916C246.121 12.3282 249.571 9.83691 253.339 9.83691C257.108 9.83691 260.621 12.4559 260.621 17.6939V36.474H256.597V18.8437H256.661Z" fill="#14191D"></path><path d="M285.022 33.5361C282.85 35.8996 279.912 37.1133 276.399 37.1133C272.886 37.1133 267.328 34.1749 267.328 28.4898C267.328 22.8046 271.991 19.9301 276.399 19.9301C280.806 19.9301 282.914 21.0799 285.022 23.5073V18.8442C285.022 15.3309 282.212 13.3507 278.443 13.3507C274.674 13.3507 272.822 14.5005 270.458 16.9279L268.606 14.1172C271.416 11.2427 274.738 9.8374 278.954 9.8374C283.17 9.8374 288.983 12.3286 288.983 18.5887V36.4107H284.958V33.4723L285.022 33.5361ZM285.022 26.1263C283.489 23.9544 280.743 22.8685 277.868 22.8685C274.993 22.8685 271.48 25.232 271.48 28.5537C271.48 31.8753 274.099 34.1749 277.868 34.1749C281.637 34.1749 283.489 33.089 285.022 30.9171V25.9985V26.1263Z" fill="#14191D"></path><path d="M300.482 43.7565C302.398 43.7565 304.059 41.9041 304.059 39.4767V28.1064C304.059 25.8707 304.762 24.146 306.551 23.3794C304.762 22.6129 304.059 20.8882 304.059 18.6525V7.28218C304.059 4.72706 302.462 3.00235 300.482 3.00235H297.224V0.0639648H300.482C303.932 0.0639648 307.189 2.8746 307.189 7.34606V18.397C307.189 20.3772 308.084 22.1019 310 22.1019V24.7848C308.148 24.7848 307.189 26.5095 307.189 28.4897V39.5406C307.189 43.9482 303.932 46.7588 300.482 46.7588H297.224V43.8204H300.482V43.7565Z" fill="#7E459B"></path></svg>